<svg class="icon" viewBox="0 0 1024 1024" xmlns="http://www.w3.org/2000/svg"><path d="M896 96c35.346 0 64 28.654 64 64v528c0 35.346-28.654 64-64 64H536v128h400c13.254 0 24 10.746 24 24s-10.746 24-24 24H88c-13.254 0-24-10.746-24-24s10.746-24 24-24l400-.002V752H128c-35.346 0-64-28.654-64-64V160c0-35.346 28.654-64 64-64h768zM248.451 364.762l-34.985 69.97a24 24 0 0 1-20.91 13.262L192 448l-80-.002V688c0 8.837 7.163 16 16 16h768c8.837 0 16-7.163 16-16V447.998L448 448a24 24 0 0 1-16.515-6.586l-.456-.443-36.541-36.542-51.72 155.16c-7.517 22.552-39.578 21.549-45.869-1.075l-.182-.693-48.266-193.06zM896 144H128c-8.837 0-16 7.163-16 16v239.998l65.168.002 57.366-114.733c9.864-19.731 38.76-16.768 44.58 4.269l.17.643 44.01 176.043 37.936-113.81c5.588-16.758 26.696-21.895 39.36-9.756l.381.373L457.941 400 912 399.998V160c0-8.837-7.163-16-16-16z"/></svg>