<svg class="icon" viewBox="0 0 1088 1024" xmlns="http://www.w3.org/2000/svg"><path d="M960 832H128C57.6 832 0 774.4 0 704V128C0 57.6 57.6 0 128 0h832c70.4 0 128 57.6 128 128v576c0 70.4-57.6 128-128 128zM128 64c-38.4 0-64 25.6-64 64v576c0 38.4 25.6 64 64 64h832c38.4 0 64-25.6 64-64V128c0-38.4-25.6-64-64-64H128z"/><path d="M160 672s-6.4 0 0 0c-25.6-6.4-32-19.2-32-38.4 0-6.4 6.4-19.2 121.6-224 6.4-6.4 12.8-12.8 25.6-19.2 12.8 0 19.2 6.4 25.6 12.8l89.6 134.4 160-332.8c6.4-12.8 12.8-19.2 32-19.2 12.8 0 25.6 6.4 25.6 19.2l160 345.6 96-147.2c6.4-12.8 32-19.2 44.8-12.8 12.8 6.4 19.2 32 12.8 44.8l-128 198.4c-6.4 12.8-19.2 19.2-32 12.8-12.8 0-19.2-6.4-25.6-19.2L576 288 422.4 608c-6.4 12.8-12.8 19.2-25.6 19.2s-25.6-6.4-32-12.8l-96-140.8C224 550.4 185.6 627.2 179.2 640c6.4 25.6-6.4 32-19.2 32zm384 352c-19.2 0-32-12.8-32-32V800c0-19.2 12.8-32 32-32s32 12.8 32 32v192c0 19.2-12.8 32-32 32z"/><path d="M736 1024H352c-19.2 0-32-12.8-32-32s12.8-32 32-32h384c19.2 0 32 12.8 32 32s-12.8 32-32 32z"/></svg>