<svg class="icon" viewBox="0 0 1064 1024" xmlns="http://www.w3.org/2000/svg"><path d="M731.587 666.882a88.484 88.484 0 1 0 176.968 0 88.484 88.484 0 1 0-176.968 0z"/><path d="M546.232 1023.422H83.569A79.52 79.52 0 0 1 0 947.372V76.117A79.52 79.52 0 0 1 82.701.068h842.626a79.52 79.52 0 0 1 82.701 76.05V619.17h-57.833V76.12c0-9.832-11.277-18.218-24.868-18.218H82.7c-13.59 0-24.868 8.386-24.868 18.217v871.253c0 9.832 11.277 18.218 24.868 18.218h462.664z"/><path d="M230.175 215.785h533.798v53.495H230.175zm4.916 146.895H643.97v53.496H235.09zm3.759 146.607h303.334v53.495H238.85zm484.062 271.526l98.316 242.898H632.98V842.694a59.857 59.857 0 0 1 57.833-61.592zm284.248 61.88v181.018H821.228l108.726-242.898h19.952a59.857 59.857 0 0 1 57.254 61.88z"/><path d="M821.517 767.51l45.977 45.978L821.228 1024l-48.87-212.247 49.159-44.242z"/></svg>