<svg class="icon" viewBox="0 0 1024 1024" xmlns="http://www.w3.org/2000/svg"><path d="M972.8 199.68H51.2A51.2 51.2 0 0 0 0 250.88v716.8a51.2 51.2 0 0 0 51.2 51.2h921.6a51.2 51.2 0 0 0 51.2-51.2v-716.8a51.2 51.2 0 0 0-51.2-51.2zM523.802 312.32a51.2 51.2 0 1 1-.026-102.374 51.2 51.2 0 0 1 .026 102.374z" fill="#DADCC2"/><path d="M568.371 285.85a50.995 50.995 0 0 1-44.57 26.47c-19.25 0-35.84-10.752-44.569-26.47H98.15v646.835l398.08-311.091L925.875 285.85H568.371z" fill="#F8FCFF"/><path d="M496.23 621.594L853.222 342.63 496.23 621.594 98.15 932.684h827.725V285.85z" fill="#EFF2F4"/><path d="M865.869 856.909c0 13.568-11.008 24.576-24.576 24.576H639.232a24.576 24.576 0 0 1-24.576-24.576v-2.56c0-13.568 11.008-24.576 24.576-24.576h202.06c13.569 0 24.577 11.008 24.577 24.576v2.56zm-57.6-351.642c0 13.568-11.008 24.576-24.576 24.576H644.454a24.576 24.576 0 0 1-24.576-24.576v-2.56c0-13.568 11.008-24.576 24.576-24.576h139.239c13.568 0 24.576 11.008 24.576 24.576v2.56zm0 117.99c0 13.569-11.008 24.577-24.576 24.577H644.454a24.576 24.576 0 0 1-24.576-24.576v-2.56c0-13.568 11.008-24.576 24.576-24.576h139.239c13.568 0 24.576 11.008 24.576 24.576v2.56zm0 118.247c0 13.568-11.008 24.576-24.576 24.576H644.454a24.576 24.576 0 0 1-24.576-24.576v-2.56c0-13.568 11.008-24.576 24.576-24.576h139.239c13.568 0 24.576 11.008 24.576 24.576v2.56z" fill="#A4A4A2"/><path d="M265.011 533.146h-.051.051z" fill="#F5F5F5"/><path d="M517.786 645.658H490.7l-8.474 94.566h35.559zm-35.559 94.566l-12.672 141.26h48.23v-141.26z" fill="#3AAEDA"/><path d="M482.227 740.224l8.474-94.566h-70.042l-48.512 130.636 36.07-36.07z" fill="#3AAEDA"/><path d="M408.218 740.224l-36.07 36.07-37.556 101.07v4.12h134.989l12.646-141.26z" fill="#3AAEDA"/><path d="M246.477 645.658H149.35v235.827h117.607l48.947-48.922-26.7-71.833zm56.55-39.117c1.127.307 2.227.717 3.38 1.024.69.179 1.33.512 2.047.665a110.539 110.539 0 0 0 25.088 3.124l1.024-.077V390.323l-1.024-.051c-2.713 0-5.222.614-7.884.794-1.127.102-2.228.281-3.354.41-55.68 5.708-99.277 52.12-99.277 109.337 0 50.38 33.92 92.441 80 105.728zm31.565 274.944v-4.122l-1.024 2.765-17.664-47.565-48.947 48.922z" fill="#79C3E0"/><path d="M444.109 500.813a110.515 110.515 0 0 0-109.491-110.49v220.954a113.664 113.664 0 0 0 24.064-3.047 110.387 110.387 0 0 0 85.427-107.417z" fill="#3AAEDA"/><path d="M334.592 649.37h-35.405l-2.637 29.44 38.042 91.033z" fill="#F8FBFF"/><path d="M393.702 649.37h-59.11v120.473l1.792 4.301zm-94.515 0h-14.925l12.288 29.44z" fill="#F8FBFF"/><path d="M353.382 737.152l15.642-34.074 24.678-53.708h-59.11v50.15h4.378v26.112h-4.378v44.211l1.792 4.301z" fill="#CCC"/><path d="M334.592 725.632h-18.483l18.483 44.211zm-29.363-26.112h29.363v-50.15h-50.33l12.288 29.44z" fill="#F8FBFF"/><path d="M305.229 699.52l10.88 26.112h18.483V699.52h-29.363z" fill="#DD394E"/><path d="M334.592 699.52h4.378v26.112h-4.378V699.52z" fill="#B8141B"/><path d="M523.802 5.12a102.4 102.4 0 0 0-102.4 102.4v153.6a102.4 102.4 0 0 0 204.8 0v-153.6a102.4 102.4 0 0 0-102.4-102.4zm47.18 275.942c-1.996 4.736-4.89 8.96-8.14 12.852a51.866 51.866 0 0 1-6.964 6.86 50.56 50.56 0 0 1-32.05 11.572 50.74 50.74 0 0 1-34.868-13.901c-.41-.384-.922-.691-1.331-1.101a51.046 51.046 0 0 1-13.952-46.515 51.277 51.277 0 0 1 60.467-39.834 51.098 51.098 0 0 1 39.834 39.834 50.74 50.74 0 0 1-2.996 30.233zm-57.497 30.234zm57.497-30.234zm-57.497-70.092zm42.368 89.779zM560 224.922zm-25.882-13.952zm-46.515 86.348z" fill="#BDC4C8"/></svg>