<svg class="icon" viewBox="0 0 1138 1024" xmlns="http://www.w3.org/2000/svg"><path d="M455.111 170.667H113.9C50.888 170.667 0 221.63 0 284.497v454.719c0 63.099 50.92 113.83 113.733 113.83h58.48c15.76 0 25.972 12.617 23.094 28.18l-13.956 75.49c-11.441 61.884 22.835 85.251 76.518 52.407l206.487-126.332c27.109-16.586 74.1-29.745 105.533-29.745h226.498c62.715 0 113.835-50.963 113.835-113.83V284.498c0-63.1-50.994-113.831-113.899-113.831H512.31V84.78c0-15.674 12.942-28.38 28.191-28.38h512.103c15.57 0 28.19 12.82 28.19 28.689v341.542c0 15.845-12.6 28.69-28.685 28.69h-28.154c-31.391 0-56.84 25.444-56.84 57.048v-17.3c0 15.786-10.834 21.5-23.831 13.002l-32.364-21.159v58.756l20.237 14.375c51.34 36.47 92.959 15.068 92.959-47.566v27.835c0-15.554 12.598-28.162 28.681-28.162h28.15c31.387 0 56.83-25.398 56.83-56.766V56.765c0-31.35-25.515-56.765-57.029-56.765H512.141c-31.497 0-57.03 25.263-57.03 57.01v113.657zM170.667 597.333c0-15.71 12.798-28.444 28.639-28.444H540.25c15.817 0 28.639 12.625 28.639 28.444 0 15.71-12.799 28.445-28.64 28.445H199.307c-15.817 0-28.64-12.626-28.64-28.445zm0-170.666c0-15.71 12.95-28.445 28.211-28.445h512.466c15.58 0 28.212 12.626 28.212 28.445 0 15.71-12.951 28.444-28.212 28.444H198.878c-15.58 0-28.211-12.625-28.211-28.444z"/></svg>