<svg class="icon" viewBox="0 0 1024 1024" xmlns="http://www.w3.org/2000/svg">
  <path
    d="M230.857 962.651H793.6c60.855 0 96.42-34.304 96.42-94.72V476.635l55.278 50.579c9.015 8.576 18.871 14.573 30.867 14.573 20.132 0 36.425-12.434 36.425-33.005 0-12.855-4.718-20.992-12.855-28.288L851.017 344.63V92.233c0-18.852-11.995-30.866-30.848-30.866h-56.137c-18.432 0-31.305 12.014-31.305 30.866v144.86L563.456 82.798c-14.994-13.715-33.006-21.413-51.438-21.413-18.432 0-36.425 7.698-51.42 21.413L24.303 480.512c-7.717 7.296-12.855 15.433-12.855 28.288 0 20.571 16.274 33.006 36.425 33.006 12.434 0 22.29-5.998 30.866-14.574l55.278-50.14V867.95c0 60.416 35.584 94.72 96.86 94.72zM635.43 609.08c0-19.712-12.855-32.146-32.567-32.146H421.12c-19.712 0-32.987 12.434-32.987 32.146v284.544h-142.72c-27.429 0-42.423-14.994-42.423-42.862v-436.7l294.016-267.83c4.279-4.279 9.417-6.857 14.994-6.857s10.715 2.14 15.433 6.857l293.559 267.867v436.7c0 27.867-14.994 42.861-41.984 42.861h-143.58z" />
</svg>
