<svg class="icon" viewBox="0 0 1024 1024" xmlns="http://www.w3.org/2000/svg"><path d="M842.144 32C907.2 32 960 85.76 960 152v720c.48 66.24-52.32 120-117.376 120h-628.8C148.8 992 96 938.24 96 872V768H64a32 32 0 0 1 0-64h32V544H64a32 32 0 0 1 0-64h32V320H64a32 32 0 1 1 0-64h32V152c0-66.24 52.8-120 117.824-120h628.32zM320 96H213.824c-27.872 0-51.232 22.304-53.632 51.136L160 152v104h32a32 32 0 1 1 0 64h-32v160h32a32 32 0 0 1 0 64h-32v160h32a32 32 0 0 1 0 64h-32v104c0 29.504 21.888 53.376 49.248 55.808l4.576.192H320V96zm522.144 0H384v832h458.624c27.84 0 51.04-22.176 53.216-51.104L896 872V152c0-29.504-21.888-53.376-49.248-55.808L842.144 96zM640.96 516.512l110.08 63.168c10.496 6.016 16.96 17.12 16.96 29.152v126.336c0 12.032-6.464 23.136-16.96 29.152l-110.08 63.168a34.08 34.08 0 0 1-33.92 0L496.96 764.32A33.664 33.664 0 0 1 480 735.168V608.832c0-12.032 6.464-23.136 16.96-29.152l110.08-63.168a34.08 34.08 0 0 1 33.92 0zm-16.992 64.032l-80 45.92v91.04L624 763.424l79.968-45.888v-91.104l-80-45.888z"/></svg>