<svg class="icon" viewBox="0 0 1024 1024" xmlns="http://www.w3.org/2000/svg"><path d="M793.206 1024H230.794a113.165 113.165 0 0 1-112.64-113.69V170.667a113.165 113.165 0 0 1 112.64-113.69h112.377v170.666H680.83V56.976h112.64a113.165 113.165 0 0 1 112.377 113.69V910.31A113.165 113.165 0 0 1 793.206 1024zm-84.283-625.69H315.077a28.357 28.357 0 1 0 0 56.714h393.846a28.357 28.357 0 1 0 0-56.714zm0 170.666H315.077a28.357 28.357 0 1 0 0 56.714h393.846a28.357 28.357 0 1 0 0-56.714zm0 170.667H315.077a28.357 28.357 0 1 0 0 56.714h393.846a28.357 28.357 0 1 0 0-56.714zM568.19 170.667H455.81a56.714 56.714 0 0 1-56.188-56.977V56.976A56.451 56.451 0 0 1 455.549 0h112.64a56.714 56.714 0 0 1 56.189 56.976v56.714a56.451 56.451 0 0 1-55.927 56.977z"/></svg>