<svg class="icon" viewBox="0 0 1024 1024" xmlns="http://www.w3.org/2000/svg"><path d="M487.665 430.878c-51.155 0-92.777 41.623-92.777 92.778s41.622 92.777 92.777 92.777c51.14 0 92.762-41.623 92.762-92.777s-41.607-92.778-92.762-92.778zm0 155.437c-34.56 0-62.66-28.115-62.66-62.66s28.1-62.66 62.66-62.66c34.545 0 62.645 28.116 62.645 62.66s-28.1 62.66-62.645 62.66z"/><path d="M983.838 591.089v-109.84c0-22.693-35.554-31.337-48.083-32.601l-49.8-4.714c-9.833-44.137-29.003-87.989-57.117-130.665l27.271-34.877c13.282-16.218 14.577-38.008 2.907-49.679l-69.497-69.12c-11.655-11.655-33.084-10.044-49.815 3.63l-36.562 29.861c-39.665-24.681-82.9-41.502-128.768-50.944l-5.24-42.134c-1.206-12.078-9.804-44.8-32.618-44.8h-97.883c-22.799 0-31.382 32.722-32.587 44.845l-5.436 39.484c-41.683 10.21-83.11 28.777-123.392 55.311l-41.758-32.994c-16.324-13.327-38.16-14.682-49.755-3.087l-69.15 69.482c-11.64 11.655-9.954 33.114 3.75 49.844l35.674 43.776a389.391 389.391 0 0 0-48.474 120.862l-68.774 5.919C18.296 450.696 5.03 464.414 5.03 481.265v97.882c0 16.821 13.266 30.54 33.626 32.588l70.295 6.023a389.752 389.752 0 0 0 48.956 118.89l-37.376 45.718c-13.719 16.746-15.33 38.099-3.75 49.664l69.15 69.226c11.596 11.61 32.919 10.074 49.589-3.54l45.176-36.698a392.81 392.81 0 0 0 119.522 50.749l5.843 55.431c2.093 20.947 16.113 36.744 32.587 36.744h97.883c16.474 0 30.494-15.797 32.572-36.669l5.451-51.922c4.081 0 8.403.24 12.83.481 11.897.648 24.2 1.13 36.232-2.243a243.38 243.38 0 0 0 153.871 54.362c135.108 0 245.022-109.914 245.022-245.022 0-47.104-13.447-92.446-38.67-131.84zM589.011 886.09c-9.984-.542-20.27-1.114-30.585.738a14.878 14.878 0 0 0-12.182 13.101l-6.732 64.302c-.632 6.264-3.403 9.682-2.981 9.938l-96.527.271c-.949-.542-3.72-3.945-4.367-10.285l-6.957-66.123a14.848 14.848 0 0 0-11.716-12.996 363.52 363.52 0 0 1-128.874-54.769 14.908 14.908 0 0 0-17.724.768l-53.67 43.596c-4.562 3.734-8.613 4.577-10.661 4.638l-67.223-67.313c.015-1.792 1.01-6.19 4.744-10.767l44.228-54.107a14.878 14.878 0 0 0 .873-17.649c-25.555-38.415-43.354-81.588-52.902-128.33a14.863 14.863 0 0 0-12.995-11.822l-82.613-7.168c-6.19-.618-8.418-2.967-8.493-2.982l-.106-97.235c.286-.587 2.68-3.072 8.704-3.674l80.46-7.093a14.908 14.908 0 0 0 13.025-12.002 360.568 360.568 0 0 1 52.6-130.198 14.863 14.863 0 0 0-.903-17.514l-42.285-52.103c-3.81-4.653-4.713-9.156-4.698-10.963l67.463-67.734c1.747-.196 6.13.647 10.858 4.502l50.507 39.951a14.863 14.863 0 0 0 17.68.678c43.323-29.952 87.882-49.664 132.457-59.046 6.37-1.34 11.113-6.174 11.745-12.634l6.476-50.899c.738-7.364 4.08-17.83 6.55-17.83h90.715c2.364 0 5.812 10.03 6.595 17.68l6.25 52.103a14.908 14.908 0 0 0 12.243 13.312 363.249 363.249 0 0 1 137.954 54.965 14.863 14.863 0 0 0 17.573-.859l44.966-36.442c4.653-3.795 9.728-4.578 10.902-4.638l67.81 67.132c.332 1.1-.015 5.948-4.337 11.204l-34.138 43.64a14.908 14.908 0 0 0-.527 17.634c31.533 45.613 51.938 92.491 60.717 139.37 1.235 6.52 6.58 11.444 13.177 12.077l60.596 5.752c7.891.798 21.022 4.262 21.022 6.837v79.315a193.22 193.22 0 0 0-27.934-26.986 238.095 238.095 0 0 0-148.299-51.983c-1.777 0-3.494.226-5.256.271A286.494 286.494 0 0 0 487.65 236.378c-158.434 0-287.307 128.889-287.307 287.308S329.23 810.993 487.65 810.993c22.407 0 44.62-2.726 66.244-7.83a236.695 236.695 0 0 0 36.578 66.198c4.698 5.963 9.758 11.64 14.968 17.122-5.105.165-10.677-.075-16.43-.392zm168.117-399.63c-121.435 10.375-217.119 112.368-217.119 236.453 0 22.633 3.283 44.664 9.367 65.822-20.149 4.668-40.824 7.168-61.696 7.168-150.121 0-272.248-122.127-272.248-272.248S337.559 251.407 487.68 251.407A271.435 271.435 0 0 1 757.128 486.46zm20.36 451.357c-56.502 0-97.176-16.248-138.331-50.432-3.93-3.267-10.813-5.24-16.941-5.12-.09-.09-.12-.226-.211-.316a223.368 223.368 0 0 1-54.965-86.633 7.5 7.5 0 0 0-.12-3.163 7.304 7.304 0 0 0-1.747-3.042 222.54 222.54 0 0 1-10.12-66.198c0-122.64 99.78-222.419 222.434-222.419 51.08 0 99.102 16.836 138.888 48.67 16.685 13.372 28.43 26.052 35.87 38.792.09.165.286.226.391.376a14.758 14.758 0 0 0 1.868 12.68 213.7 213.7 0 0 1 37.903 121.886c-.015 118.513-96.422 214.92-214.92 214.92z"/><path d="M776.252 541.094c-95.473 0-173.146 77.673-173.146 173.146s77.673 173.146 173.146 173.146 173.132-77.673 173.132-173.146-77.659-173.146-173.132-173.146zm0 331.234c-87.175 0-158.087-70.912-158.087-158.088s70.912-158.088 158.087-158.088c87.16 0 158.073 70.912 158.073 158.088s-70.912 158.088-158.073 158.088z"/><path d="M776.252 632.892c-44.86 0-81.348 36.488-81.348 81.348s36.503 81.348 81.348 81.348 81.333-36.488 81.333-81.348-36.473-81.348-81.333-81.348zm0 132.578c-28.25 0-51.23-22.98-51.23-51.23s22.98-51.23 51.23-51.23 51.215 22.98 51.215 51.23-22.964 51.23-51.215 51.23z"/></svg>