<svg class="icon" viewBox="0 0 1024 1024" xmlns="http://www.w3.org/2000/svg" ><path d="M766.63 462.848c-23.342-132.548-137.94-230.49-274.583-230.49-154.067 0-279.416 125.334-279.416 279.401S337.965 791.16 492.047 791.16c19.652 0 39.153-2.258 58.233-6.324a248.35 248.35 0 0 1-11.385-74.481c0-130.244 100.232-236.906 227.735-247.507zM492.047 606.524c-52.254 0-94.765-42.51-94.765-94.765s42.51-94.765 94.765-94.765 94.75 42.51 94.75 94.765-42.496 94.765-94.75 94.765z"/><path d="M555.505 799.096a294.852 294.852 0 0 1-63.458 7.123c-162.364 0-294.475-132.08-294.475-294.46S329.682 217.3 492.047 217.3A293.391 293.391 0 0 1 781.78 462.08c1.897-.045 3.75-.286 5.662-.286 83.41 0 157.033 41.23 202.12 104.252a15.014 15.014 0 0 0 9.336-13.9V461.75c0-23.341-36.05-32.196-48.73-33.461l-51.592-4.924c-10.225-46.156-30.103-91.829-59.226-136.012l28.566-36.472c13.689-16.7 15.044-39.138 3.102-51.064L798.886 128c-11.927-11.972-33.958-10.376-51.155 3.674l-38.174 30.961a406.89 406.89 0 0 0-134.114-53.504L570.052 53.4c-1.792-17.996-13.372-43.37-33.476-43.37H434.974c-20.058 0-31.638 25.36-33.46 43.37l-5.633 56.23c-44.574 10.751-87.672 29.695-128.436 56.425l-43.656-34.952c-17.152-14.08-39.138-15.586-51.14-3.524l-71.845 71.982c-11.912 11.926-10.255 33.942 3.81 51.14l37.014 45.612A404.27 404.27 0 0 0 90.73 422.204l-53.233 6.084C17.77 430.276 5.03 443.422 5.03 461.764v101.602c0 18.341 12.754 31.473 32.346 33.445l57.555 6.25c10.42 45.553 27.226 87.1 50.025 123.783l-39.439 47.722c-14.155 17.317-15.932 39.273-4.141 51.034l71.665 71.86c11.866 11.867 33.747 10.286 50.914-3.704l47.074-38.28a406.844 406.844 0 0 0 124.446 52.842l6.069 57.841c2.153 21.534 16.534 37.783 33.445 37.783h101.602c16.896 0 31.277-16.234 33.446-37.723l5.782-55.205 7.981-1.145c15.18-2.153 30.705-4.472 44.454-8.644-.873-.768-1.671-1.596-2.53-2.364a248.877 248.877 0 0 1-70.22-99.765z"/><path d="M783.616 478.118c-127.518 0-230.897 103.378-230.897 230.897s103.379 230.897 230.897 230.897c127.533 0 230.897-103.38 230.897-230.897S911.149 478.118 783.616 478.118zm4.397 406.482c-97.807 0-177.378-79.57-177.378-177.377s79.571-177.378 177.378-177.378c97.792 0 177.363 79.57 177.363 177.378S885.82 884.6 788.013 884.6z"/><path d="M788.013 544.888c-89.494 0-162.319 72.825-162.319 162.32s72.825 162.319 162.32 162.319 162.303-72.825 162.303-162.32-72.794-162.319-162.304-162.319zm0 245.369c-45.794 0-83.05-37.256-83.05-83.05s37.256-83.049 83.05-83.049c45.779 0 83.035 37.256 83.035 83.05s-37.256 83.049-83.035 83.049z"/></svg>