<svg class="icon" viewBox="0 0 1024 1024" xmlns="http://www.w3.org/2000/svg"><path d="M494 580.3v153.6c0 28.3-22.9 51.2-51.2 51.2H289.2c-28.3 0-51.2-22.9-51.2-51.2V580.3c0-28.3 22.9-51.2 51.2-51.2h153.6c28.3 0 51.2 23 51.2 51.2zm238.9-51.2c28.3 0 51.2 22.9 51.2 51.2v153.6c0 28.3-22.9 51.2-51.2 51.2H579.3c-28.3 0-51.2-22.9-51.2-51.2V580.3c0-28.3 22.9-51.2 51.2-51.2h153.6zM527.4 334.8l96.5-96.5c17.8-17.8 46.6-17.8 64.3 0l96.5 96.5c17.8 17.8 17.8 46.6 0 64.3l-96.5 96.5c-17.8 17.8-46.6 17.8-64.3 0l-96.5-96.5c-17.7-17.7-17.7-46.5 0-64.3zM442.8 239c28.3 0 51.2 22.9 51.2 51.2v153.6c0 28.3-22.9 51.2-51.2 51.2H289.2c-28.3 0-51.2-22.9-51.2-51.2V290.2c0-28.3 22.9-51.2 51.2-51.2h153.6z"/></svg>