<svg class="icon" viewBox="0 0 1024 1024" xmlns="http://www.w3.org/2000/svg"><path d="M0 947.2V76.8C0 34.304 34.304 0 76.8 0h614.4C733.696 0 768 34.304 768 76.8v742.4h-51.2V76.8c0-14.336-11.264-25.6-25.6-25.6H76.8c-14.336 0-25.6 11.264-25.6 25.6v870.4c0 14.336 11.264 25.6 25.6 25.6h742.4v51.2H76.8C34.304 1024 0 989.696 0 947.2z"/><path d="M716.8 947.2V281.6c0-42.496 34.304-76.8 76.8-76.8h153.6c42.496 0 76.8 34.304 76.8 76.8v665.6c0 42.496-34.304 76.8-76.8 76.8H793.6c-42.496 0-76.8-34.304-76.8-76.8zM793.6 256c-14.336 0-25.6 11.264-25.6 25.6v665.6c0 14.336 11.264 25.6 25.6 25.6h153.6c14.336 0 25.6-11.264 25.6-25.6V281.6c0-14.336-11.264-25.6-25.6-25.6H793.6zm-512 128H179.2c-28.16 0-51.2-23.04-51.2-51.2V230.4c0-28.16 23.04-51.2 51.2-51.2h102.4c28.16 0 51.2 23.04 51.2 51.2v102.4c0 28.16-23.04 51.2-51.2 51.2zm128 0h204.8c14.336 0 25.6-11.264 25.6-25.6s-11.264-25.6-25.6-25.6H409.6c-14.336 0-25.6 11.264-25.6 25.6s11.264 25.6 25.6 25.6zm0-153.6h204.8c14.336 0 25.6-11.264 25.6-25.6s-11.264-25.6-25.6-25.6H409.6c-14.336 0-25.6 11.264-25.6 25.6s11.264 25.6 25.6 25.6zm-256 460.8h460.8c14.336 0 25.6-11.264 25.6-25.6S628.736 640 614.4 640H153.6c-14.336 0-25.6 11.264-25.6 25.6s11.264 25.6 25.6 25.6zm0-153.6h460.8c14.336 0 25.6-11.264 25.6-25.6s-11.264-25.6-25.6-25.6H153.6c-14.336 0-25.6 11.264-25.6 25.6s11.264 25.6 25.6 25.6zm0 307.2h460.8c14.336 0 25.6-11.264 25.6-25.6s-11.264-25.6-25.6-25.6H153.6c-14.336 0-25.6 11.264-25.6 25.6s11.264 25.6 25.6 25.6z"/><path d="M844.8 384v460.8c0 14.336 11.264 25.6 25.6 25.6s25.6-11.264 25.6-25.6V384c0-14.336-11.264-25.6-25.6-25.6s-25.6 11.264-25.6 25.6z" /></svg>