<svg class="icon" viewBox="0 0 1280 1024" xmlns="http://www.w3.org/2000/svg"><path d="M256 704H64c-35.34 0-64 28.66-64 64v192c0 35.34 28.66 64 64 64h192c35.34 0 64-28.66 64-64V768c0-35.34-28.66-64-64-64zm-48-160h384v96h96v-96h384v96h96V524.82c0-42.34-34.46-76.82-76.82-76.82H688V320h80c35.34 0 64-28.66 64-64V64c0-35.34-28.66-64-64-64H512c-35.34 0-64 28.66-64 64v192c0 35.34 28.66 64 64 64h80v128H188.82c-42.36 0-76.82 34.46-76.82 76.82V640h96v-96zm528 160H544c-35.34 0-64 28.66-64 64v192c0 35.34 28.66 64 64 64h192c35.34 0 64-28.66 64-64V768c0-35.34-28.66-64-64-64zm480 0h-192c-35.34 0-64 28.66-64 64v192c0 35.34 28.66 64 64 64h192c35.34 0 64-28.66 64-64V768c0-35.34-28.66-64-64-64z"/></svg>