<svg class="icon" viewBox="0 0 1024 1024" xmlns="http://www.w3.org/2000/svg"><path d="M886.924 54.225H151.738a103.33 103.33 0 0 0-103.33 103.331v527.36A103.564 103.564 0 0 0 151.97 788.48h332.567v111.476h-248.32a34.91 34.91 0 1 0 0 69.819H585.31a34.91 34.91 0 0 0 0-69.819h-30.953V783.593a38.4 38.4 0 0 0 0-7.448 34.676 34.676 0 0 0 9.542-23.272 34.91 34.91 0 0 0-34.909-34.91H151.971a33.745 33.745 0 0 1-33.746-33.745V157.556a33.28 33.28 0 0 1 33.513-33.512h735.186a33.745 33.745 0 0 1 33.745 33.745V514.56a34.91 34.91 0 0 0 69.818 0V157.79A103.564 103.564 0 0 0 886.924 54.224z"/><path d="M462.662 239.476a34.91 34.91 0 0 0-34.91-34.909H236.219a34.91 34.91 0 1 0 0 69.818h191.535a34.91 34.91 0 0 0 34.909-34.909zm-226.444 87.971a34.91 34.91 0 1 0 0 69.818h131.957a34.91 34.91 0 0 0 0-69.818zm665.6 324.19a28.625 28.625 0 0 0-25.134-14.43H727.97a29.09 29.09 0 0 0-25.367 14.43l-74.24 127.767a28.393 28.393 0 0 0 0 29.09l74.24 128.931a29.09 29.09 0 0 0 25.367 14.43h148.713a28.625 28.625 0 0 0 25.134-14.43l75.637-128.93a28.393 28.393 0 0 0 0-29.091zm-40.727 242.036H744.727l-57.716-99.608 57.716-99.84h116.364l57.716 99.84z"/><path d="M802.444 721.455a72.844 72.844 0 1 0 72.61 72.843 72.844 72.844 0 0 0-72.61-72.843zm0 87.272a14.662 14.662 0 1 1 14.429-14.429 14.662 14.662 0 0 1-14.43 14.197z"/></svg>