<svg class="icon" viewBox="0 0 1024 1024" xmlns="http://www.w3.org/2000/svg"><path d="M33.04 33.04v958.281h958.281V33.04H33.04zm916.919 916.64H74.4V74.679H950V949.68zM857.84 187.079H166.521V431.68H857.84V187.079zm-32.519 211.84H199.04v-179.04h626.281v179.04zM552.24 620.601h305.6v-124.8h-305.6v124.8zm32.56-92h240.521v59.241H584.8v-59.28zM552.24 794.64h305.6v-124.8h-305.6v124.8zm32.56-92.039h240.521v59.239H584.8v-59.239zm-411.28 158.72h305.6v-390.88h-305.6v390.88zM206.041 503.2h240.521v325.36h-240.56V503.2z"/></svg>