<svg class="icon" viewBox="0 0 1024 1024" xmlns="http://www.w3.org/2000/svg"><path d="M896.047 151.412h-192v-64a64.023 64.023 0 0 0-64-64H384.023a64 64 0 0 0-64 64v64h-192A128 128 0 0 0 0 279.412v576.024a128 128 0 0 0 128.023 128h768.024a128 128 0 0 0 128-128V279.412a128 128 0 0 0-128-128zm-512.024-32c0-17.664 14.336-32 32-32h192c17.664 0 32 14.336 32 32v32h-256v-32zM960.07 855.436a64.023 64.023 0 0 1-64 64H128.023a64 64 0 0 1-64.023-64v-352h324.538a127.07 127.07 0 0 0-4.515 32 128 128 0 0 0 256 0c0-11.148-1.885-21.737-4.561-32h324.585v352h.023zm-512.023-320c0-11.707 3.35-22.528 8.866-32h110.243c5.516 9.472 8.867 20.293 8.867 32a64 64 0 1 1-127.976 0zm512.023-96H64.023v-160a64 64 0 0 1 64-64h768.024a64.023 64.023 0 0 1 64 64v160h.023zm0 0"/></svg>