<svg class="icon" viewBox="0 0 1024 1024" xmlns="http://www.w3.org/2000/svg"><path d="M802.816 464.896v-143.36c0-26.624-10.24-51.2-28.672-69.632-16.384-16.384-40.96-26.624-69.632-26.624h-81.92v-34.816c0-28.672-12.288-53.248-30.72-71.68-18.432-18.432-45.056-30.72-73.728-30.72H358.4c-28.672 0-53.248 12.288-71.68 30.72-18.432 18.432-30.72 45.056-30.72 71.68v34.816h-81.92c-26.624 0-51.2 10.24-67.584 28.672-18.432 18.432-28.672 43.008-28.672 69.632v395.264c0 26.624 10.24 49.152 26.624 67.584l2.048 2.048c16.384 18.432 43.008 28.672 67.584 28.672h339.968c43.008 61.44 114.688 102.4 194.56 102.4 131.072 0 235.52-106.496 235.52-235.52 0-98.304-57.344-182.272-141.312-219.136zM313.344 190.464c0-12.288 6.144-24.576 14.336-32.768s20.48-14.336 32.768-14.336h159.744c12.288 0 24.576 6.144 32.768 14.336s14.336 20.48 14.336 32.768v34.816H313.344v-34.816zm172.032 569.344H174.08c-10.24 0-22.528-4.096-28.672-12.288l-2.048-2.048c-6.144-8.192-12.288-18.432-12.288-28.672V323.584c0-12.288 4.096-22.528 12.288-30.72 10.24-6.144 20.48-12.288 30.72-12.288h530.432c12.288 0 22.528 4.096 28.672 12.288 8.192 8.192 12.288 18.432 12.288 30.72V450.56c-12.288-2.048-24.576-4.096-38.912-4.096-131.072 0-235.52 106.496-235.52 235.52 2.048 26.624 6.144 53.248 14.336 77.824zm223.232 112.64c-104.448 0-190.464-83.968-190.464-190.464 0-104.448 83.968-190.464 190.464-190.464 104.448 0 190.464 83.968 190.464 190.464 0 104.448-86.016 190.464-190.464 190.464z"/><path d="M755.712 686.08L768 673.792c6.144 2.048 12.288 4.096 18.432 4.096 8.192 0 16.384 0 22.528-2.048 10.24-2.048 20.48-8.192 26.624-14.336 8.192-6.144 14.336-16.384 18.432-24.576 2.048-4.096 0-8.192-4.096-10.24h-4.096l-18.432 6.144-16.384 2.048-12.288-10.24-12.288-12.288 4.096-16.384 4.096-16.384 16.384-4.096 18.432-4.096c4.096 0 6.144-4.096 4.096-8.192 0-2.048-2.048-2.048-2.048-4.096-8.192-6.144-18.432-10.24-26.624-12.288-10.24-2.048-20.48-2.048-30.72 0-18.432 4.096-30.72 16.384-40.96 30.72-8.192 14.336-12.288 32.768-6.144 49.152l-14.336 14.336-43.008-43.008c2.048-2.048 2.048-4.096 4.096-6.144 2.048-4.096 2.048-8.192 4.096-10.24 2.048-4.096 6.144-8.192 10.24-8.192 4.096-2.048 10.24-2.048 16.384-2.048 2.048 0 4.096 0 6.144-2.048s2.048-8.192 0-10.24c-10.24-10.24-22.528-16.384-34.816-16.384-12.288 0-22.528 2.048-32.768 12.288-2.048 0-4.096 2.048-8.192 4.096-2.048 0-2.048 2.048-4.096 2.048l-4.096-4.096c-2.048-2.048-8.192-2.048-10.24 0l-30.72 30.72c-2.048 2.048-2.048 8.192 0 10.24l4.096 4.096v2.048c0 2.048-2.048 4.096-2.048 6.144h-8.192c-2.048 0-4.096 0-6.144 2.048l-14.336 16.384c-2.048 2.048-2.048 8.192 0 10.24l14.336 16.384 20.48 20.48c2.048 2.048 8.192 2.048 10.24 0l16.384-16.384c2.048-2.048 2.048-4.096 2.048-6.144v-6.144s0-2.048 2.048-2.048 4.096-2.048 6.144-2.048l2.048-2.048 43.008 43.008-88.064 88.064c-2.048 2.048-2.048 8.192 0 10.24l30.72 30.72c2.048 2.048 8.192 2.048 10.24 0l88.064-88.064 92.16 92.16c2.048 2.048 8.192 2.048 10.24 0l30.72-30.72c2.048-2.048 2.048-8.192 0-10.24l-94.208-90.112zm-118.784-57.344c-2.048-2.048-6.144-2.048-10.24 0-2.048 2.048-4.096 2.048-6.144 4.096-2.048 0-4.096 2.048-6.144 2.048l-2.048 2.048c-2.048 2.048-4.096 6.144-4.096 8.192s-2.048 4.096-2.048 8.192l-8.192 8.192-14.336-12.288-12.288-12.288 8.192-8.192h8.192c4.096 0 8.192-2.048 10.24-6.144l2.048-2.048c0-2.048 2.048-4.096 2.048-6.144s2.048-4.096 4.096-6.144 2.048-6.144-2.048-10.24l-2.048-4.096 20.48-20.48 2.048 2.048c2.048 2.048 6.144 2.048 8.192 0s6.144-4.096 8.192-4.096c2.048-2.048 4.096-2.048 6.144-2.048s2.048 0 2.048-2.048c8.192-8.192 16.384-10.24 24.576-10.24 4.096 0 8.192 2.048 12.288 2.048-2.048 0-2.048 0-4.096 2.048-6.144 4.096-12.288 8.192-16.384 16.384v2.048c0 2.048-2.048 6.144-2.048 8.192-2.048 2.048-4.096 6.144-6.144 10.24-2.048 2.048-2.048 6.144 0 8.192l47.104 47.104-20.48 20.48-47.104-45.056zm-16.384 172.032l-20.48-20.48 88.064-88.064 53.248-55.296c2.048-2.048 2.048-4.096 2.048-8.192v-4.096c-4.096-14.336-2.048-26.624 6.144-38.912 6.144-12.288 18.432-20.48 30.72-24.576 8.192-2.048 16.384-2.048 24.576 0 2.048 0 4.096 2.048 8.192 2.048h-2.048l-18.432 6.144c-2.048 0-4.096 2.048-4.096 4.096l-10.24 38.912c0 2.048 0 4.096 2.048 6.144l14.336 14.336 14.336 14.336c2.048 2.048 4.096 2.048 6.144 2.048l20.48-6.144h2.048l-6.144 6.144c-6.144 6.144-12.288 8.192-20.48 12.288-6.144 2.048-12.288 2.048-18.432 2.048-6.144 0-12.288-2.048-16.384-4.096-2.048-2.048-6.144-2.048-8.192 2.048L620.544 800.768zm190.464 2.048L724.992 716.8l20.48-20.48 86.016 86.016-20.48 20.48zM659.456 376.832H221.184c-8.192 0-16.384 8.192-16.384 16.384 0 10.24 8.192 16.384 16.384 16.384h440.32c10.24 0 16.384-8.192 16.384-16.384-2.048-8.192-8.192-16.384-18.432-16.384zM555.008 503.808h-337.92c-6.144 0-12.288 6.144-12.288 16.384s6.144 16.384 12.288 16.384h337.92c8.192 0 12.288-8.192 12.288-16.384s-6.144-16.384-12.288-16.384zM485.376 630.784H212.992c-6.144 0-10.24 8.192-10.24 16.384 0 10.24 4.096 16.384 10.24 16.384h272.384c6.144 0 10.24-8.192 10.24-16.384s-4.096-16.384-10.24-16.384z"/></svg>