<svg class="icon" viewBox="0 0 1024 1024" xmlns="http://www.w3.org/2000/svg"><path d="M257.493 799.573A382.55 382.55 0 0 0 512 896a382.55 382.55 0 0 0 254.507-96.427c-12.502-44.928-102.23-74.24-254.507-74.24-152.32 0-242.005 29.312-254.507 74.24zm-61.184-68.906C244.31 667.22 357.12 640 512 640c154.88 0 267.69 27.221 315.733 90.667a384 384 0 1 0-631.424 0zM512 981.333C252.8 981.333 42.667 771.2 42.667 512S252.8 42.667 512 42.667 981.333 252.8 981.333 512 771.2 981.333 512 981.333zM341.333 426.667C341.333 330.923 408.747 256 512 256c102.997 0 170.667 82.005 170.667 179.2C682.667 575.147 606.635 640 512 640c-95.573 0-170.667-67.115-170.667-213.333zm85.334 0c0 96.853 34.901 128 85.333 128 50.261 0 85.333-29.952 85.333-119.467 0-53.333-33.45-93.867-85.333-93.867-54.016 0-85.333 34.816-85.333 85.334z"/></svg>