<svg class="icon" viewBox="0 0 1068 1024" xmlns="http://www.w3.org/2000/svg"><path d="M939.903 0H128.618C56.888 0 0 56.889 0 128.618v576.31c0 71.729 56.889 128.618 128.618 128.618h811.285c71.73 0 128.619-56.889 128.619-128.618v-576.31C1068.522 56.888 1011.632 0 939.903 0zm56.89 704.928c0 32.154-24.735 56.888-56.89 56.888H128.618c-32.154 0-56.889-24.734-56.889-56.888v-576.31c0-32.154 24.735-56.889 56.89-56.889h811.284c32.155 0 56.89 24.735 56.89 56.89v576.309zm-91.518 244.87h-202.82V930.01c0-17.314-14.841-32.155-32.155-32.155H378.435c-17.314 0-32.155 14.84-32.155 32.155v19.787H143.46c-19.788 0-37.102 17.314-37.102 37.102S123.671 1024 143.46 1024h761.816c19.788 0 37.102-17.314 37.102-37.101s-17.314-37.102-37.102-37.102z"/><path d="M818.705 403.17c9.894-14.841-2.473-34.629-19.787-34.629H586.203c-17.314 0-29.681 19.788-19.788 34.628l66.783 113.778 9.894 19.787-19.788 34.628-54.415 96.464c0 2.474-2.474 2.474-2.474 4.947v2.473c-2.473 12.368 7.42 27.208 22.261 27.208h212.715c14.84 0 24.735-12.367 22.261-27.208v-2.473c0-2.473 0-2.473-2.473-4.947l-79.15-131.092 9.894-19.787 66.782-113.778zm-108.83 113.777H677.72l-64.31-111.304h160.774l-64.31 111.304z"/><path d="M601.043 536.734l-64.309-116.25c-4.947-9.895-7.42-19.788-7.42-29.682-7.42-4.947-17.314-7.42-24.734-9.894 44.521-24.734 74.203-71.73 74.203-128.618 0-81.623-64.31-145.933-145.933-145.933-81.623 0-145.932 64.31-145.932 145.933 0 54.415 29.681 101.41 74.203 128.618-76.677 27.208-133.565 101.41-133.565 187.98 0 4.948 2.473 7.421 7.42 7.421h343.807l22.26-39.575z"/></svg>