<svg viewBox="0 0 344 349" xmlns="http://www.w3.org/2000/svg" xmlns:xlink="http://www.w3.org/1999/xlink"><defs><path d="M66.521 0C64.94 0 52.848 2.693 30.245 8.078L0 59.138l32.848 11.245C56.878 23.46 68.102 0 66.521 0z" id="a"/><path d="M80.428 0c9.256 21.933 13.884 36.36 13.884 43.28 0 10.38-7.148 18.376-13.884 18.376-4.49 0-18.219-.07-41.185-.212L46 96.877H0l12.512-59.954c17.355-10.178 33.841-14.69 49.46-13.538C77.592 24.54 83.743 16.744 80.428 0z" id="c"/><path id="e" d="M0 .107h22.04l-4.592 19.07H4.64z"/></defs><g fill="none" fill-rule="evenodd"><path d="M208.794 157.657l16.018-12.157H253a4.5 4.5 0 0 0 4.5-4.5V5A4.5 4.5 0 0 0 253 .5H27A4.5 4.5 0 0 0 22.5 5v136a4.5 4.5 0 0 0 4.5 4.5h181.488l.306 12.157z" stroke="#13161A" fill="#FFF"/><path d="M151.795 176.5c-.347 0-.46.498-.028 1.38l15.079 30.8c.492 1.005 1.475 1.82 2.084 1.82h19.071c.347 0 .46-.498.029-1.38l-15.08-30.8c-.491-1.005-1.474-1.82-2.084-1.82h-19.07z" stroke="#13161A" fill="#EEE"/><path fill="#13161A" d="M252.889 256.827H344v4.325h-91.111z"/><path fill="#FFC1C7" d="M228.598 261.126l-29.754 54.5 17.7 13.647 29.597-67.699z"/><path d="M180.685 318.289l33.34 18.548" stroke="#13161A"/><path d="M199.236 313.83c4.958 2.977 12.042 6.891 21.25 11.741l-5.775 10.386-33.393-18.452c5.554-4.122 11.526-5.347 17.918-3.675z" fill="#0092FF"/><path d="M199.767 312.874l21.268 11.997" stroke="#13161A"/><path fill="#FFC1C7" d="M240.721 264.943l-9.26 61.357 21.315 6.79 4.584-73.707z"/><path d="M215.31 334.994l37.693 6.062" stroke="#13161A"/><path d="M231.213 324.479c5.681 1.107 13.68 2.37 23.997 3.788l-1.863 11.728-37.71-5.953c3.805-5.767 8.997-8.955 15.576-9.563z" fill="#0092FF"/><path d="M231.385 323.4l24.101 4.022" stroke="#13161A"/><g transform="translate(199.663 221.043)"><mask id="b" fill="#fff"><use xlink:href="#a"/></mask><use fill="#0092FF" xlink:href="#a"/><ellipse fill="#FFC82C" mask="url(#b)" cx="31.099" cy="10.267" rx="6.508" ry="6.487"/></g><g transform="translate(226.94 195.382)"><mask id="d" fill="#fff"><use xlink:href="#c"/></mask><use fill="#0092FF" xlink:href="#c"/><ellipse fill="#FFC82C" mask="url(#d)" cx="16.403" cy="38.09" rx="6.942" ry="6.92"/></g><path d="M216.98 203.835c-10.947-.012-15.366 2.137-13.258 6.447 2.109 4.31 7.882 5.943 17.319 4.901l-4.06-11.348z" fill="#FFC1C7"/><path d="M211.985 202.54l8.331 13.184" stroke="#13161A"/><path d="M265.448 155.593c-2.134 1.504-3.78 4.277-4.936 8.32-1.157 4.041-4.417 24.345-9.779 60.91l67.498-5.552c-4.51-12.021-8.078-23.294-10.702-33.818-3.936-15.787-5.6-29.86-13.41-32.84-5.206-1.987-11.491-2.138-18.856-.453l-9.815 3.433z" fill="#FFC82C"/><path d="M263.705 176.63l-4.078 43.25" stroke="#13161A"/><path fill="#FFC82C" d="M261.38 163.378l-14.752 38.06H211.92l13.884 21.623 29.407-7.037z"/><path d="M273.122 214.291c-10.922.75-15.18 3.2-12.775 7.353 2.405 4.152 8.834 5.19 19.287 3.115l-6.512-10.468z" fill="#FFC1C7"/><path d="M271.69 213.667l2.502 15.38" stroke="#13161A"/><path d="M295.855 153.134c7.106 5.319 12.023 11.916 14.751 19.79 2.728 7.874 5.27 22.934 7.625 45.18l-43.147 12.742-3.161-24.22 27.113-2.594c-4.964-23.74-7.39-38.146-7.278-43.218.113-5.072 1.478-7.632 4.097-7.68z" fill="#FFC82C"/><path stroke="#13161A" d="M292.653 174.654l1.467 27.447-15.62 8.722"/><path d="M285.34 152.549a4.765 4.765 0 0 1-5.582 4.28 4.765 4.765 0 0 1-3.78-5.931c.003-.091.012-.183.029-.275l.957-5.431a2 2 0 0 1 2.317-1.622l5.46.962a2 2 0 0 1 1.623 2.317l-.957 5.431a2.018 2.018 0 0 1-.067.269z" fill="#FFC1C7"/><path d="M275.689 154.564c4.938 2.05 8.377 3.968 9.545-2.36" stroke="#13161A"/><g transform="rotate(10 -502.056 1592.116)" fill-rule="nonzero"><ellipse fill="#2F2E41" cx="18.346" cy="17.309" rx="17.364" ry="17.309"/><ellipse fill="#FFC1C7" cx="15.628" cy="19.531" rx="15.628" ry="15.578"/><path d="M27.431 28.697c-6.554 6.534-17.102 6.783-23.96.567a17.399 17.399 0 0 0 17.075 5.142 17.359 17.359 0 0 0 10.755-8.04A17.274 17.274 0 0 0 28 4.812c6.237 6.837 5.987 17.351-.568 23.885z" fill="#000" opacity=".1"/></g><path d="M279.39 136.397c.3-.296.6-.637.885-1.014 1.25-1.654 1.745-3.384 1.106-3.863-.639-.48-2.17.471-3.419 2.125a9.92 9.92 0 0 0-.057.076c-4.354-3.291-5.968-9.696-4.502-14.12 1.513-4.568 9.333-4.229 13.078-4.8 3.744-.573 4.334 4.19 9.014 7.374 4.681 3.184 2.189 13.213.682 16.588-1.508 3.376-3.43 5.072-5.915 4.83-2.109-.205-8.218-3.006-10.873-7.196z" fill="#2F2E41" fill-rule="nonzero"/><path d="M239.738 230.877L226.94 292.26" stroke="#13161A"/><g transform="rotate(10 -437.087 1736.273)" fill-rule="nonzero"><ellipse fill="#2F2E41" cx="14.447" cy="15.029" rx="12.155" ry="12.144"/><path d="M2.337 14.161c-.02.288-.044.575-.044.867.057 6.666 5.482 12.041 12.155 12.041 6.673 0 12.098-5.375 12.154-12.041 0-.293-.023-.58-.044-.867-.452 6.35-5.738 11.272-12.11 11.276-6.372-.004-11.659-4.926-12.11-11.276z" fill="#000" opacity=".1"/><path d="M1.714 12.716a12.097 12.097 0 0 1 4.702-9.614A12.122 12.122 0 0 1 16.912.972 12.157 12.157 0 0 0 4.38 2.806 12.13 12.13 0 0 0 .292 14.78a12.142 12.142 0 0 0 8.798 9.102 12.144 12.144 0 0 1-7.376-11.167z" fill="#2F2E41"/><path d="M16.598 24.341a12.095 12.095 0 0 1 1.7-19.12 12.137 12.137 0 0 0-7.172 10.433 12.134 12.134 0 0 0 6.02 11.135 12.158 12.158 0 0 0 12.664-.268 12.165 12.165 0 0 1-13.212-2.18z" fill="#2F2E41"/><path d="M12.685 23.393a12.092 12.092 0 0 1 1.56-10.586A12.115 12.115 0 0 1 23.6 7.596a12.152 12.152 0 0 0-11.384 5.545 12.127 12.127 0 0 0-.259 12.65 12.15 12.15 0 0 0 11.148 6.006 12.153 12.153 0 0 1-10.42-8.403v-.001z" fill="#2F2E41"/></g><path stroke="#13161A" fill="#13161A" d="M231.674 218.933V232H329v-13.067z"/><path stroke="#13161A" fill="#FFF" d="M50 218.933V232h181.674v-13.067z"/><path stroke="#13161A" fill="#0092FF" d="M192.744 214.578v4.355h41.093v-4.355z"/><path stroke="#13161A" fill="#FFF" d="M145.163 183l15.708 35.933h34.036L179.198 183z"/><g transform="translate(159.22 197.156)"><ellipse fill="#0092FF" cx="2.184" cy="2.038" rx="2.184" ry="2.038"/><ellipse fill="#FFC82C" cx="10.919" cy="2.038" rx="2.184" ry="2.038"/><ellipse fill="#13CE66" cx="18.78" cy="2.038" rx="2.184" ry="2.038"/></g><path fill="#54B6FF" d="M70.686 169l8.685 7v42h-8.685z"/><path fill="#FFDD7B" d="M80.457 169l8.686 7v42h-8.686z"/><path fill="#4FF297" d="M91.314 169l8.686 7v42h-8.686z"/><path fill="#0092FF" d="M62 169h8.686v49H62z"/><path fill="#FFC82C" d="M72.857 169h8.686v49h-8.686z"/><path fill="#13CE66" d="M82.629 169h8.686v49h-8.686z"/><g><path d="M116.193 191.921c-.79-4.88-1.905-7.936-3.344-9.168-2.16-1.848-5.33-1.737-7.082.247-1.752 1.983-1.422 5.09.737 6.937 1.44 1.232 4.67 1.893 9.69 1.984z" fill="#1FA85C"/><path d="M129.645 183.987c1.82-2.866.934-6.642-1.978-8.433-2.911-1.79-6.747-.92-8.566 1.947-1.213 1.91-1.204 6.135.028 12.673 5.798-2.214 9.303-4.276 10.516-6.187z" fill="#28B968"/><path d="M116.966 208c5.7-6.975 8.551-11.939 8.551-14.89 0-4.43-3.828-8.02-8.551-8.02-4.723 0-8.552 3.59-8.552 8.02 0 2.951 2.85 7.915 8.552 14.89z" fill="#13CE66"/><g transform="translate(106.276 199.273)"><mask id="f" fill="#fff"><use xlink:href="#e"/></mask><use fill="#7C868D" xlink:href="#e"/><path fill="#4D5761" mask="url(#f)" d="M17.315-1.362v21.795L25.58 6.81 24.202.107z"/></g></g><g transform="translate(0 264)" fill="#B8E1FF"><rect width="39.758" height="13.867" rx="6.933"/><path d="M109.251 51.2a6.4 6.4 0 1 0 0-12.8H84.406a6.4 6.4 0 1 1 0-12.8h8.509a6.4 6.4 0 1 0 0-12.8H63.68a6.4 6.4 0 1 1 0-12.8H166.6a6.4 6.4 0 0 1 0 12.8h-32.69a6.4 6.4 0 1 0 0 12.8h32.69a6.4 6.4 0 0 1 0 12.8h-25.025a6.4 6.4 0 0 0 0 12.8H166.6a6.4 6.4 0 0 1 0 12.8H38.636a6.4 6.4 0 1 1 0-12.8h70.615z"/></g><g><path d="M113 128h32a3 3 0 0 1 3 3v26.354a3 3 0 0 1-3 3h-3v6l-9.684-6H113a3 3 0 0 1-3-3V131a3 3 0 0 1 3-3z" fill="#FFC82C"/><path d="M138.5 162.456v-5.602h3.5a2.5 2.5 0 0 0 2.5-2.5V128a2.5 2.5 0 0 0-2.5-2.5h-32a2.5 2.5 0 0 0-2.5 2.5v26.354a2.5 2.5 0 0 0 2.5 2.5h19.458l9.042 5.602z" stroke="#13161A"/><path d="M124.362 142.403h-2.19v-2.496c0-.544.11-1.05.33-1.52.22-.47.525-.884.913-1.24a4.293 4.293 0 0 1 1.373-.841 4.756 4.756 0 0 1 1.73-.306c.556 0 1.091.102 1.607.306.516.204.973.484 1.373.84.4.357.718.77.956 1.24.237.47.356.977.356 1.52v2.497h-2.103v-2.02c0-.714-.203-1.266-.608-1.657-.406-.39-.956-.586-1.651-.586-.626 0-1.13.195-1.512.586-.383.39-.574.943-.574 1.656v2.021zm7.49 1.02c.314 0 .583.11.81.33.225.222.338.485.338.79v5.266a2.222 2.222 0 0 1-.617 1.554 2.085 2.085 0 0 1-1.538.637h-8.777a2.042 2.042 0 0 1-1.503-.62 1.987 1.987 0 0 1-.417-.654 2.151 2.151 0 0 1-.148-.798v-5.384c0-.306.11-.57.33-.79.22-.221.487-.331.8-.331H131.853z" fill="#FFF" fill-rule="nonzero"/></g><path d="M140.5 218.5h27v-42H145a4.5 4.5 0 0 0-4.5 4.5v37.5z" stroke="#13161A" fill="#FFF"/><path d="M162.5 336.5v-123H140a4.5 4.5 0 0 0-4.5 4.5v114a4.5 4.5 0 0 0 4.5 4.5h22.5z" stroke="#13161A" fill="#FFF"/><path d="M156.5 348.5v-22H134a4.5 4.5 0 0 0-4.5 4.5v13a4.5 4.5 0 0 0 4.5 4.5h22.5z" stroke="#13161A" fill="#FFF"/><path d="M166.5 218.5h3a3 3 0 0 0 3-3v-36a3 3 0 0 0-6 0v39zM160.5 336.5h3a3 3 0 0 0 3-3v-120h-3a3 3 0 0 0-3 3v120zM154.5 348.5h3c1.693 0 3-.77 3-1.564v-18.872c0-.793-1.307-1.564-3-1.564-1.261 0-3 3.047-3 4.51v17.49z" stroke="#13161A" fill="#EEE"/><path d="M146 183h10M140 219.5h10M140 254.5h10M140 295.5h10M146 189.5h10M140 226h10M140 261h10M140 302h10M134 335.5h10M146 196.5h16M140 233h16M140 268h16M140 309h16M134 342.5h16M146 203.5h16M140 240h16M140 275h16M140 316h16" stroke="#13161A"/><path d="M36 18h87v107H36V18zm47 42.93a3.497 3.497 0 0 0-3.516-3.485A3.497 3.497 0 0 0 76 60.961a3.497 3.497 0 0 0 3.515 3.484A3.497 3.497 0 0 0 83 60.93zm11.817-12.2c-5.684 0-10.82-1.586-15.14-4.285-4.313 2.7-9.77 4.286-15.455 4.286-2.434 0-4.808-.296-7.222-.84v24.664c.803 9.696 8.82 18.468 22.497 24.89C93.179 91.023 102 82.251 102 72.555V47.79c-2.414.61-4.6.94-7.183.94zm-13.01 39.79l-4.45.02-.092-19.98c-3.215-.938-5.572-3.863-5.608-7.342-.02-4.236 3.47-7.712 7.764-7.73 4.313-.04 7.815 3.385 7.835 7.66.025 3.406-2.233 6.418-5.54 7.392l.052 11.194 5.553-.025.01 2.216-5.547 1.58.023 5.015z" fill="#E6E6E6"/><path fill="#EEE" d="M135 28h49v12h-49zM135 54h97v8h-97zM135 72h97v8h-97zM135 90h97v8h-97z"/></g></svg>